<svg width="11" height="24" viewBox="0 0 11 24" fill="none" xmlns="http://www.w3.org/2000/svg">
<path d="M10.2866 21.41L9.9513 22.7808C8.94528 23.1779 8.14168 23.4801 7.54327 23.6879C6.94423 23.8963 6.24817 24 5.4551 24C4.23722 24 3.28993 23.7017 2.6143 23.1091C1.93868 22.5141 1.60076 21.7602 1.60076 20.8456C1.60076 20.4915 1.62528 20.1274 1.67626 19.7563C1.72767 19.3849 1.8094 18.9665 1.92126 18.4989L3.1785 14.0489C3.29036 13.6228 3.38543 13.2191 3.46157 12.8373C3.53879 12.4578 3.57601 12.1087 3.57601 11.7945C3.57601 11.2262 3.45835 10.8287 3.2241 10.6052C2.98986 10.3824 2.54289 10.2692 1.87931 10.2692C1.5543 10.2692 1.22025 10.3213 0.879751 10.4219C0.537745 10.523 0.245427 10.6207 0 10.7115L0.336198 9.33956C1.15981 9.00422 1.94707 8.71706 2.70013 8.47874C3.45318 8.23976 4.16473 8.12017 4.83777 8.12017C6.04727 8.12017 6.98058 8.41249 7.63598 8.99712C8.29139 9.58219 8.61898 10.3406 8.61898 11.2752C8.61898 11.4686 8.59747 11.8093 8.55122 12.2963C8.50605 12.7844 8.42195 13.2315 8.29934 13.6383L7.04747 18.0704C6.94487 18.4264 6.85259 18.8333 6.77236 19.2913C6.68955 19.7462 6.64997 20.0938 6.64997 20.327C6.64997 20.9155 6.78118 21.3173 7.04425 21.5309C7.30925 21.7445 7.76569 21.8507 8.41399 21.8507C8.71836 21.8507 9.06466 21.7967 9.44947 21.6907C9.83321 21.5847 10.1131 21.4915 10.2866 21.41ZM10.6041 2.80273C10.6041 3.57493 10.3131 4.23442 9.72824 4.77668C9.14489 5.32088 8.44196 5.5932 7.61964 5.5932C6.79473 5.5932 6.09007 5.32088 5.50006 4.77668C4.91112 4.23421 4.616 3.57493 4.616 2.80273C4.616 2.03203 4.91112 1.37147 5.50006 0.82232C6.089 0.274035 6.79495 0 7.61964 0C8.44174 0 9.14489 0.27468 9.72824 0.82232C10.3135 1.37147 10.6041 2.03225 10.6041 2.80273Z" fill="white"/>
</svg>
