<svg width="46" height="36" viewBox="0 0 46 36" fill="none" xmlns="http://www.w3.org/2000/svg">
<path d="M0.139648 34.9608C0.180947 34.9547 0.220504 34.94 0.255769 34.9178C0.291034 34.8955 0.321224 34.8661 0.344393 34.8315C0.397631 34.7521 0.44574 34.6693 0.488428 34.5837L2.33113 30.7241C2.37755 30.6388 2.41802 30.5593 2.45016 30.487C2.48255 30.4291 2.50128 30.3646 2.50492 30.2985C2.5076 30.271 2.50255 30.2434 2.49036 30.2187C2.47816 30.194 2.4593 30.1732 2.43588 30.1585C2.38882 30.1321 2.33836 30.1121 2.28589 30.0992V29.9214H3.97384V30.0992C3.92589 30.1133 3.87928 30.1315 3.83457 30.1538C3.80992 30.1684 3.79013 30.1899 3.77765 30.2156C3.76516 30.2413 3.76053 30.2701 3.76434 30.2985C3.76476 30.353 3.77694 30.4067 3.80005 30.4562C3.82266 30.5095 3.85718 30.5747 3.90361 30.6648L5.97248 34.7023C5.99916 34.7682 6.04629 34.8239 6.10699 34.8612C6.16974 34.898 6.23452 34.9312 6.30102 34.9608V35.1387H4.55117V34.9608C4.58621 34.9579 4.62026 34.9478 4.65116 34.9311C4.66891 34.9237 4.68403 34.9111 4.69462 34.8951C4.70521 34.879 4.7108 34.8602 4.71068 34.841C4.70377 34.7504 4.67651 34.6625 4.63093 34.5837L4.25239 33.8497H1.82284L1.46572 34.5541C1.4137 34.646 1.37976 34.7471 1.36573 34.8517C1.36573 34.924 1.42882 34.9608 1.555 34.9608V35.1387H0.139648V34.9608ZM3.89409 33.1158L3.06082 31.2696L2.12519 33.1158H3.89409Z" fill="white"/>
<path d="M8.81439 33.5022L8.91438 33.5521C8.9132 33.6072 8.92675 33.6616 8.95366 33.7098C9.02291 33.811 9.11721 33.8926 9.22745 33.9469C9.37696 34.0287 9.53352 34.0969 9.69526 34.1509C9.87627 34.2112 10.0612 34.2591 10.2488 34.2943C10.4193 34.3287 10.5927 34.347 10.7666 34.3489C10.8785 34.3489 11.0249 34.3406 11.2047 34.324C11.3836 34.3075 11.5603 34.2726 11.732 34.2196C11.893 34.1729 12.0447 34.0991 12.1808 34.0014C12.2402 33.9606 12.2885 33.9058 12.3215 33.8419C12.3546 33.778 12.3712 33.7069 12.37 33.6351C12.3742 33.5682 12.3601 33.5016 12.3293 33.4421C12.2985 33.3826 12.2521 33.3325 12.195 33.2971C12.0542 33.2137 11.8986 33.1577 11.7368 33.1323C11.5226 33.0966 11.3062 33.0752 11.0892 33.0683C10.8511 33.0588 10.6039 33.0438 10.3476 33.0232C10.0988 33.0039 9.85119 32.9711 9.60598 32.9248C9.37824 32.8827 9.15928 32.8026 8.95842 32.6876C8.77038 32.5794 8.61277 32.4256 8.50013 32.2406C8.375 32.015 8.31486 31.7594 8.32633 31.5019C8.32892 31.2938 8.37898 31.0891 8.47275 30.9031C8.57716 30.6953 8.72928 30.5149 8.91676 30.3766C9.1453 30.2103 9.40104 30.0848 9.67265 30.0055C10.0204 29.9037 10.3816 29.8549 10.744 29.8608C11.0514 29.8573 11.3584 29.8839 11.6606 29.9403C11.8872 29.9852 12.1113 30.0418 12.3319 30.1098C12.5212 30.1691 12.6807 30.2284 12.8081 30.2782C12.91 30.325 13.0199 30.3519 13.1319 30.3577C13.2034 30.3645 13.2747 30.3432 13.3307 30.2984L13.4497 30.3766L12.7629 31.6169L12.6629 31.5778C12.6537 31.4967 12.6269 31.4186 12.5843 31.3489C12.5139 31.2523 12.4238 31.1715 12.32 31.1118C12.1831 31.0289 12.0379 30.9606 11.8867 30.9078C11.7114 30.8462 11.5315 30.7982 11.3487 30.7644C11.1584 30.728 10.9651 30.7098 10.7714 30.7098C10.6196 30.7104 10.468 30.7219 10.3178 30.7442C10.1738 30.7648 10.0322 30.7998 9.89525 30.8486C9.77948 30.8889 9.67273 30.9513 9.58099 31.0324C9.54183 31.068 9.51091 31.1117 9.49035 31.1604C9.4698 31.2092 9.46011 31.2617 9.46195 31.3146C9.45767 31.3837 9.47142 31.4529 9.50187 31.5152C9.53233 31.5775 9.57844 31.6309 9.63574 31.6703C9.77524 31.7593 9.93096 31.8202 10.094 31.8493C10.3076 31.8919 10.5241 31.9185 10.7416 31.9288C10.9797 31.9422 11.2269 31.9588 11.4832 31.9786C11.7323 31.998 11.98 32.0329 12.2248 32.0829C12.4522 32.1261 12.671 32.2062 12.8724 32.3201C13.0594 32.4276 13.2169 32.5795 13.3307 32.7623C13.4554 32.9825 13.5156 33.2331 13.5045 33.4857C13.5178 33.7907 13.4207 34.0903 13.2307 34.3299C13.0451 34.5507 12.812 34.727 12.5486 34.8457C12.2693 34.9734 11.9724 35.0586 11.6677 35.0983C11.3755 35.1393 11.0808 35.1607 10.7856 35.1623C10.467 35.1666 10.1485 35.1452 9.83335 35.0983C9.61657 35.0651 9.40337 35.0119 9.1965 34.9394C9.05921 34.8901 8.92453 34.8339 8.79296 34.771C8.71371 34.7268 8.62535 34.7012 8.53465 34.6963C8.50819 34.6981 8.48257 34.7063 8.45997 34.7201C8.43738 34.734 8.41848 34.753 8.4049 34.7757L8.26562 34.6963L8.81439 33.5022Z" fill="white"/>
<path d="M20.8343 31.528L20.6344 31.4688C20.6473 31.4305 20.6541 31.3905 20.6546 31.3502C20.6495 31.2935 20.6298 31.2391 20.5975 31.1922C20.5652 31.1452 20.5213 31.1074 20.4701 31.0822C20.3244 30.9932 20.167 30.925 20.0023 30.8794C19.8001 30.8211 19.5935 30.7795 19.3845 30.7549C19.1747 30.7296 18.9637 30.7166 18.7524 30.7158C18.5046 30.7159 18.2581 30.7511 18.0203 30.8202C17.7857 30.8854 17.5659 30.9949 17.3727 31.1427C17.1788 31.2933 17.0224 31.4864 16.9156 31.7071C16.8002 31.9727 16.7407 32.259 16.7407 32.5484C16.7407 32.8378 16.8002 33.1241 16.9156 33.3897C17.0216 33.6125 17.1781 33.8077 17.3727 33.96C17.5662 34.107 17.786 34.216 18.0203 34.2813C18.2581 34.3504 18.5046 34.3856 18.7524 34.3857C19.0951 34.3893 19.4374 34.3579 19.7737 34.292C20.0348 34.2401 20.2925 34.1719 20.5451 34.0881V33.2355H19.2702C19.1955 33.2302 19.1214 33.2512 19.0607 33.2948C19.0013 33.3678 18.9697 33.4593 18.9714 33.5533H18.7929V32.2822H18.9714C18.9707 32.322 18.9782 32.3615 18.9936 32.3982C19.009 32.4349 19.0318 32.4681 19.0607 32.4956C19.1251 32.5292 19.1976 32.5443 19.2702 32.5395H21.7605V32.7185C21.6737 32.7242 21.589 32.7476 21.5117 32.7873C21.4918 32.8104 21.4771 32.8375 21.4684 32.8668C21.4598 32.896 21.4575 32.9267 21.4617 32.9569V34.0809C21.4617 34.1473 21.4807 34.19 21.5212 34.2102L21.6605 34.279V34.4367C21.4445 34.5873 21.2126 34.7137 20.9689 34.8137C20.7302 34.9129 20.4838 34.9922 20.232 35.0509C19.9861 35.1059 19.7361 35.1408 19.4845 35.1552C19.2361 35.1687 18.992 35.175 18.7524 35.1742C18.3227 35.1794 17.8947 35.1211 17.4823 35.0011C17.1237 34.8968 16.7901 34.7214 16.5014 34.4853C16.2313 34.2589 16.0154 33.9753 15.8693 33.6553C15.7216 33.3017 15.6455 32.9225 15.6455 32.5395C15.6455 32.1565 15.7216 31.7773 15.8693 31.4237C16.0155 31.1013 16.2313 30.8151 16.5014 30.5854C16.7898 30.3453 17.1232 30.1647 17.4823 30.0542C17.8935 29.9276 18.322 29.8656 18.7524 29.8704C19.0313 29.8697 19.3098 29.8899 19.5856 29.9308C19.8515 29.9704 20.0872 30.015 20.2927 30.0648C20.4987 30.1135 20.6689 30.1597 20.8058 30.2036C20.8878 30.2336 20.9728 30.2551 21.0593 30.2676C21.1089 30.2706 21.1579 30.2568 21.1986 30.2285C21.2302 30.2028 21.2636 30.1794 21.2986 30.1585L21.4176 30.2285L20.8343 31.528Z" fill="white"/>
<path d="M23.6016 34.9608C23.6429 34.9548 23.6825 34.9402 23.7178 34.918C23.7531 34.8957 23.7832 34.8662 23.8063 34.8315C23.86 34.7523 23.9081 34.6695 23.9503 34.5837L25.793 30.7241C25.8395 30.6388 25.8811 30.5593 25.9121 30.487C25.9445 30.4291 25.9632 30.3646 25.9668 30.2985C25.9695 30.271 25.9645 30.2434 25.9523 30.2187C25.9401 30.194 25.9212 30.1732 25.8978 30.1585C25.8507 30.1321 25.8003 30.1121 25.7478 30.0992V29.9214H27.431V30.0992C27.383 30.1133 27.3364 30.1315 27.2917 30.1538C27.2673 30.1686 27.2477 30.1901 27.2355 30.2158C27.2232 30.2415 27.2188 30.2703 27.2227 30.2985C27.2227 30.3529 27.2345 30.4067 27.2572 30.4562C27.2798 30.5095 27.3155 30.5747 27.362 30.6648L29.4332 34.7023C29.4602 34.768 29.5073 34.8236 29.5677 34.8612C29.6306 34.8978 29.6954 34.931 29.7617 34.9608V35.1387H28.0131V34.9608C28.0482 34.9584 28.0824 34.9483 28.1131 34.9311C28.131 34.9239 28.1463 34.9114 28.1569 34.8953C28.1676 34.8792 28.173 34.8603 28.1726 34.841C28.1657 34.7504 28.1384 34.6625 28.0928 34.5837L27.7155 33.8497H25.2848L24.9276 34.5541C24.8756 34.646 24.8417 34.7471 24.8276 34.8517C24.8276 34.924 24.8907 34.9608 25.0169 34.9608V35.1387H23.6016V34.9608ZM27.356 33.1158L26.5227 31.2696L25.5859 33.1158H27.356Z" fill="white"/>
<path d="M35.2338 29.9212C35.5249 29.9181 35.8154 29.9463 36.1004 30.0054C36.3375 30.0523 36.5636 30.1432 36.767 30.2734C36.949 30.3915 37.0967 30.555 37.1955 30.7477C37.3015 30.9726 37.3524 31.2192 37.3443 31.4675C37.3443 31.9038 37.2158 32.2382 36.9563 32.4694C36.6583 32.7187 36.2963 32.8801 35.9111 32.9354L37.2348 34.8207C37.2723 34.8803 37.3317 34.9228 37.4003 34.9393C37.4573 34.952 37.5156 34.9587 37.5741 34.9595V35.1373H35.7111V34.9595C35.7642 34.9605 35.817 34.9504 35.8659 34.9298C35.9087 34.9097 35.9302 34.8836 35.9302 34.8504C35.9279 34.8081 35.9144 34.7671 35.8909 34.7318C35.8647 34.6891 35.8242 34.631 35.7718 34.5587L34.6755 33.0137H33.2471V34.7792C33.2455 34.8052 33.2505 34.8311 33.2618 34.8545C33.273 34.878 33.2901 34.8982 33.3113 34.9132C33.3849 34.9501 33.4674 34.9657 33.5494 34.9583V35.1361H31.8281V34.9583C32.0198 34.9583 32.1162 34.8978 32.1162 34.7792V30.2734C32.1162 30.1548 32.0198 30.0944 31.8281 30.0944V29.9165L35.2338 29.9212ZM34.9743 32.2417C35.1741 32.2455 35.3737 32.2272 35.5695 32.1872C35.7044 32.1612 35.833 32.1092 35.948 32.0342C36.0346 31.9742 36.1036 31.8924 36.148 31.7971C36.1873 31.7044 36.2075 31.6048 36.2075 31.5042C36.2075 31.4036 36.1873 31.304 36.148 31.2113C36.1039 31.1158 36.0349 31.0339 35.948 30.9742C35.8331 30.8987 35.7045 30.8464 35.5695 30.82C35.3736 30.7806 35.1741 30.7623 34.9743 30.7655H33.2518V32.2334L34.9743 32.2417Z" fill="white"/>
<path d="M43.261 29.9214C43.6074 29.9183 43.952 29.9716 44.2811 30.0791C44.5925 30.1786 44.8773 30.3466 45.1145 30.5708C45.3517 30.7949 45.5352 31.0695 45.6512 31.374C45.9163 32.1221 45.9163 32.938 45.6512 33.6862C45.5354 33.9907 45.352 34.2652 45.1148 34.4892C44.8775 34.7132 44.5926 34.8809 44.2811 34.9798C43.9522 35.0883 43.6075 35.142 43.261 35.1387H39.9541V34.9608C40.1077 34.9608 40.1838 34.9004 40.1838 34.7818V30.276C40.1838 30.1574 40.1077 30.0969 39.9541 30.0969V29.9191L43.261 29.9214ZM42.8622 34.2862C43.1365 34.2896 43.4103 34.2629 43.6788 34.2067C43.8924 34.163 44.0912 34.0655 44.2561 33.9233C44.4169 33.7766 44.5356 33.59 44.6001 33.3826C44.7525 32.824 44.7525 32.235 44.6001 31.6763C44.535 31.4692 44.4164 31.2827 44.2561 31.1356C44.0908 30.9943 43.8921 30.8972 43.6788 30.8534C43.4104 30.7966 43.1365 30.77 42.8622 30.774H41.3147V34.2862H42.8622Z" fill="white"/>
<path d="M22.8842 0.643066C20.7542 0.643433 18.6587 1.17956 16.7921 2.20175C14.9256 3.22393 13.3483 4.69906 12.2067 6.49034C11.0651 8.28163 10.396 10.3311 10.2616 12.4486C10.1271 14.5661 10.5316 16.6832 11.4376 18.6035L11.5924 18.5478L11.7114 18.441C10.8323 16.5663 10.4428 14.5008 10.5791 12.4361C10.7154 10.3714 11.3731 8.37449 12.4911 6.63059C13.6091 4.8867 15.1512 3.45236 16.9743 2.46068C18.7974 1.46899 20.8424 0.952088 22.9197 0.957937C24.9969 0.963787 27.039 1.4922 28.8564 2.49414C30.6739 3.49607 32.2078 4.93907 33.3159 6.68924C34.424 8.4394 35.0703 10.44 35.1949 12.5054C35.3195 14.5709 34.9183 16.6342 34.0285 18.5039C34.1118 18.575 34.1928 18.6497 34.2749 18.7209C35.2052 16.8001 35.6309 14.6755 35.5122 12.5461C35.3934 10.4167 34.7341 8.35215 33.5959 6.5458C32.4577 4.73944 30.8779 3.25035 29.0045 2.21798C27.1311 1.18561 25.0253 0.643724 22.8842 0.643066Z" fill="url(#paint0_linear_166_38)"/>
<path d="M35.5938 21.6045V25.1688C35.9985 25.3609 36.3996 25.5601 36.7972 25.77V22.4298C36.3901 22.1653 35.9901 21.8879 35.5938 21.6045Z" fill="url(#paint1_linear_166_38)"/>
<path d="M33.6885 24.3424C34.0027 24.461 34.3158 24.5962 34.6253 24.7302V20.8872C34.3079 20.6453 33.9956 20.3967 33.6885 20.1414V24.3424Z" fill="url(#paint2_linear_166_38)"/>
<path d="M31.7921 23.6642C32.1028 23.7638 32.4135 23.8658 32.7206 23.9749V19.309C32.4063 19.0315 32.098 18.7469 31.7921 18.4564V23.6642Z" fill="url(#paint3_linear_166_38)"/>
<path d="M29.9113 23.1271C30.2168 23.2061 30.5207 23.2876 30.8231 23.3714V17.496C30.5152 17.1798 30.2112 16.8573 29.9113 16.5284V23.1271Z" fill="url(#paint4_linear_166_38)"/>
<path d="M14.7217 23.3759C15.0324 23.2882 15.3431 23.2028 15.6573 23.1233V16.5757C15.3502 16.9109 15.0383 17.2401 14.7217 17.5634V23.3759Z" fill="url(#paint5_linear_166_38)"/>
<path d="M12.8418 23.9735C13.1442 23.8668 13.4481 23.7644 13.7536 23.6664V18.5132C13.4536 18.7962 13.1497 19.0729 12.8418 19.3432V23.9735Z" fill="url(#paint6_linear_166_38)"/>
<path d="M10.9287 24.7324C11.2406 24.5973 11.556 24.4657 11.8727 24.3412V20.1709C11.5624 20.4262 11.2477 20.6748 10.9287 20.9167V24.7324Z" fill="url(#paint7_linear_166_38)"/>
<path d="M8.76074 25.7702C9.15595 25.5615 9.55591 25.3635 9.95945 25.1773V21.6307C9.56424 21.9106 9.16666 22.1845 8.76074 22.4453V25.7702Z" fill="url(#paint8_linear_166_38)"/>
<path d="M20.4268 22.468C21.9932 22.283 23.5763 22.2865 25.1418 22.4787C23.4753 20.3941 22.7789 18.957 22.7789 18.957C22.7789 18.957 22.0849 20.3894 20.4268 22.468Z" fill="#CA973B"/>
<path d="M28.0067 21.6592C28.3162 21.9406 28.6297 22.2118 28.9471 22.4726V15.4139C28.6297 15.0345 28.3174 14.6475 28.0103 14.2531L28.0067 21.6592Z" fill="url(#paint9_linear_166_38)"/>
<path d="M26.1105 19.8059C26.4128 20.1308 26.7235 20.4462 27.0378 20.7545V12.9499C26.7203 12.5025 26.4112 12.048 26.1105 11.5863V19.8059Z" fill="url(#paint10_linear_166_38)"/>
<path d="M24.2451 17.5458C24.5272 17.9419 24.8272 18.3296 25.1415 18.709V10.0211C24.8328 9.49701 24.534 8.96422 24.2451 8.42273V17.5458Z" fill="url(#paint11_linear_166_38)"/>
<path d="M23.2774 16.0173V6.49821C22.9179 5.73222 22.5787 4.95161 22.2596 4.15637V16.0577C22.4501 15.7162 22.6251 15.3711 22.7786 15.0225C22.9286 15.3577 23.0949 15.6893 23.2774 16.0173Z" fill="#CA973B"/>
<path d="M21.2914 8.60156C20.9985 9.14542 20.6934 9.68493 20.376 10.2201V18.7634C20.6986 18.3756 21.0069 17.9796 21.2961 17.5776L21.2914 8.60156Z" fill="url(#paint12_linear_166_38)"/>
<path d="M18.5146 20.758C18.8158 20.4651 19.1098 20.1651 19.4027 19.8545V11.7594C19.113 12.1965 18.817 12.6266 18.5146 13.0495V20.758Z" fill="url(#paint13_linear_166_38)"/>
<path d="M16.6267 22.4607C16.9322 22.203 17.239 21.9366 17.5469 21.6615V14.3419C17.2461 14.7245 16.9394 15.1012 16.6267 15.4719V22.4607Z" fill="url(#paint14_linear_166_38)"/>
<defs>
<linearGradient id="paint0_linear_166_38" x1="8.73547" y1="9.68198" x2="36.7592" y2="9.68198" gradientUnits="userSpaceOnUse">
<stop stop-color="#FEE3B2"/>
<stop offset="1" stop-color="#BE8D34"/>
</linearGradient>
<linearGradient id="paint1_linear_166_38" x1="8.73532" y1="23.6878" x2="36.7591" y2="23.6878" gradientUnits="userSpaceOnUse">
<stop stop-color="#FEE3B2"/>
<stop offset="1" stop-color="#BE8D34"/>
</linearGradient>
<linearGradient id="paint2_linear_166_38" x1="8.73579" y1="22.4358" x2="36.7596" y2="22.4358" gradientUnits="userSpaceOnUse">
<stop stop-color="#FEE3B2"/>
<stop offset="1" stop-color="#BE8D34"/>
</linearGradient>
<linearGradient id="paint3_linear_166_38" x1="8.73572" y1="21.2156" x2="36.7596" y2="21.2156" gradientUnits="userSpaceOnUse">
<stop stop-color="#FEE3B2"/>
<stop offset="1" stop-color="#BE8D34"/>
</linearGradient>
<linearGradient id="paint4_linear_166_38" x1="8.73569" y1="19.9493" x2="36.7595" y2="19.9493" gradientUnits="userSpaceOnUse">
<stop stop-color="#FEE3B2"/>
<stop offset="1" stop-color="#BE8D34"/>
</linearGradient>
<linearGradient id="paint5_linear_166_38" x1="8.73529" y1="19.9764" x2="36.7591" y2="19.9764" gradientUnits="userSpaceOnUse">
<stop stop-color="#FEE3B2"/>
<stop offset="1" stop-color="#BE8D34"/>
</linearGradient>
<linearGradient id="paint6_linear_166_38" x1="8.7362" y1="21.2439" x2="36.76" y2="21.2439" gradientUnits="userSpaceOnUse">
<stop stop-color="#FEE3B2"/>
<stop offset="1" stop-color="#BE8D34"/>
</linearGradient>
<linearGradient id="paint7_linear_166_38" x1="8.73604" y1="22.4523" x2="36.7598" y2="22.4523" gradientUnits="userSpaceOnUse">
<stop stop-color="#FEE3B2"/>
<stop offset="1" stop-color="#BE8D34"/>
</linearGradient>
<linearGradient id="paint8_linear_166_38" x1="8.73574" y1="23.6999" x2="36.7595" y2="23.6999" gradientUnits="userSpaceOnUse">
<stop stop-color="#FEE3B2"/>
<stop offset="1" stop-color="#BE8D34"/>
</linearGradient>
<linearGradient id="paint9_linear_166_38" x1="8.73577" y1="18.3628" x2="36.7595" y2="18.3628" gradientUnits="userSpaceOnUse">
<stop stop-color="#FEE3B2"/>
<stop offset="1" stop-color="#BE8D34"/>
</linearGradient>
<linearGradient id="paint10_linear_166_38" x1="8.73577" y1="16.1704" x2="36.7596" y2="16.1704" gradientUnits="userSpaceOnUse">
<stop stop-color="#FEE3B2"/>
<stop offset="1" stop-color="#BE8D34"/>
</linearGradient>
<linearGradient id="paint11_linear_166_38" x1="8.73574" y1="13.5653" x2="36.7595" y2="13.5653" gradientUnits="userSpaceOnUse">
<stop stop-color="#FEE3B2"/>
<stop offset="1" stop-color="#BE8D34"/>
</linearGradient>
<linearGradient id="paint12_linear_166_38" x1="8.73532" y1="13.6825" x2="36.7591" y2="13.6825" gradientUnits="userSpaceOnUse">
<stop stop-color="#FEE3B2"/>
<stop offset="1" stop-color="#BE8D34"/>
</linearGradient>
<linearGradient id="paint13_linear_166_38" x1="8.73572" y1="16.2593" x2="36.7595" y2="16.2593" gradientUnits="userSpaceOnUse">
<stop stop-color="#FEE3B2"/>
<stop offset="1" stop-color="#BE8D34"/>
</linearGradient>
<linearGradient id="paint14_linear_166_38" x1="8.73573" y1="18.4019" x2="36.7595" y2="18.4019" gradientUnits="userSpaceOnUse">
<stop stop-color="#FEE3B2"/>
<stop offset="1" stop-color="#BE8D34"/>
</linearGradient>
</defs>
</svg>
